<?xml version="1.0" encoding="UTF-8" standalone="no"?>
<!DOCTYPE svg PUBLIC "-//W3C//DTD SVG 1.1//EN" "http://www.w3.org/Graphics/SVG/1.1/DTD/svg11.dtd">
<svg width="100%" height="100%" viewBox="0 0 1277 1277" version="1.1" xmlns="http://www.w3.org/2000/svg" xmlns:xlink="http://www.w3.org/1999/xlink" xml:space="preserve" xmlns:serif="http://www.serif.com/" style="fill-rule:evenodd;clip-rule:evenodd;stroke-linecap:round;stroke-linejoin:round;stroke-miterlimit:1.5;">
    <g transform="matrix(1,0,0,1,-1050.26,-4563.72)">
        <g id="glasses">
        </g>
        <g id="Group-8" serif:id="Group 8">
        </g>
        <g id="Group-7" serif:id="Group 7">
        </g>
        <g id="Group-1" serif:id="Group 1">
        </g>
        <g id="Group-6" serif:id="Group 6">
        </g>
        <g id="Group-9" serif:id="Group 9">
        </g>
        <g id="Layer1">
        </g>
        <g id="Artboard1" transform="matrix(1,0,0,1,-14346,-2463.48)">
            <rect x="14355.5" y="5998.33" width="3333.91" height="3333.91" style="fill:none;"/>
            <g transform="matrix(1,0,0,1,628.272,1304.21)">
                <circle cx="15406.4" cy="6361.42" r="623.853" style="fill:none;stroke:black;stroke-width:29.17px;"/>
            </g>
            <g transform="matrix(1,0,0,1,593.364,1277.21)">
                <path d="M15042.8,6529.15C15072.9,6672.61 15185.1,6808.29 15432.2,6809.36C15674.6,6810.42 15819.2,6669.84 15839.9,6529.15" style="fill:none;stroke:black;stroke-width:29.17px;stroke-linecap:square;"/>
            </g>
            <g transform="matrix(1,0,0,1,212.846,-83.6464)">
                <g transform="matrix(0.999914,0.0131289,-0.0131289,0.999914,103.482,-169.832)">
                    <path d="M15362.3,7895.37C15356.6,7901.07 15347.4,7901.09 15341.7,7895.41C15336,7889.74 15335.9,7880.5 15341.6,7874.79C15378.7,7837.57 15410.4,7807.6 15498.6,7815.36C15506.6,7816.07 15512.6,7823.15 15511.9,7831.17C15511.2,7839.19 15504.1,7845.12 15496.1,7844.42C15420.8,7837.8 15393.9,7863.63 15362.3,7895.37Z"/>
                </g>
                <g transform="matrix(-0.999914,0.0131289,0.0131289,0.999914,31539.6,-168.749)">
                    <path d="M15341.6,7874.79C15335.9,7880.5 15336,7889.74 15341.7,7895.41C15347.4,7901.09 15356.6,7901.07 15362.3,7895.37C15393.9,7863.63 15420.8,7837.8 15496.1,7844.42C15504.1,7845.12 15511.2,7839.19 15511.9,7831.17C15512.6,7823.15 15506.6,7816.07 15498.6,7815.36C15410.4,7807.6 15378.7,7837.57 15341.6,7874.79Z"/>
                </g>
            </g>
            <g transform="matrix(0.950099,0,0,0.950099,295.823,1562.58)">
                <g transform="matrix(1,0,0,1,1127.36,-1.39148)">
                    <path d="M15494.8,6359.41C15478.4,6329.46 15438.7,6331.27 15438.7,6331.27C15438.7,6331.27 15397,6330.19 15380.5,6360.14C15364.1,6390.08 15347.8,6371.82 15345.1,6377.93C15342.3,6384.04 15356.6,6400.42 15322.3,6425.91C15287.9,6451.41 15242,6443.28 15219,6442.06C15195.9,6440.85 15130.9,6421.44 15088.1,6398.64C15045.3,6375.85 15059.3,6370 15033.5,6378.05C15022.5,6381.45 15018,6369 15002.8,6352.24C14987.7,6335.49 14988.6,6301.71 14986.9,6294.99C14985.2,6288.27 14976.1,6280.38 14959.3,6272.69C14942.4,6265.01 14937.8,6258.78 14934.7,6253.89C14931.7,6249 14937.2,6232.49 14927.3,6226.21C14887.5,6224.76 14868.2,6212.2 14856.3,6189.82C14828.5,6198.25 14795.3,6208.82 14776.7,6186.14C14766.8,6174.22 14760.4,6145.83 14770.7,6128.73C14780.2,6119.03 14791,6109.74 14800.2,6102.29C14792.7,6109.98 14786.8,6119.21 14785.2,6129.99C14782,6151.15 14811,6186.98 14832.8,6168.69C14832.8,6168.69 14853.8,6162.11 14905.4,6196.72C14926,6210.5 14932.9,6183.01 14942.5,6192.85C14952.1,6202.69 14987.1,6198.12 14997.2,6198.27C15007.3,6198.41 15112.9,6195.63 15160.1,6199.04C15207.4,6202.45 15279.7,6219.75 15307.8,6233.28C15301.7,6269.05 15336.2,6238.51 15342.3,6241.52C15348.1,6244.39 15406.5,6291.84 15438.4,6291.87C15470.2,6291.9 15527.7,6244.55 15533.5,6241.68C15539.6,6238.67 15575.2,6267.41 15567.6,6232.56C15596.2,6220.07 15668,6201.73 15715.2,6198.31C15762.5,6194.9 15868.1,6197.69 15878.2,6197.54C15888.3,6197.39 15923.2,6201.96 15932.8,6192.12C15942.4,6182.28 15949.4,6209.78 15970,6195.99C16021.6,6161.38 16042.6,6167.96 16042.6,6167.96C16064.4,6186.25 16093.4,6150.42 16090.2,6129.26C16088.5,6118.48 16082.6,6109.25 16075.2,6101.56C16084.4,6109.01 16095.2,6118.31 16104.7,6128C16114.9,6145.1 16108.5,6173.49 16098.7,6185.41C16080,6208.09 16046.9,6197.53 16019.1,6189.09C16007.2,6211.48 15987.9,6224.03 15948,6225.48C15938.1,6231.76 15943.7,6248.27 15940.6,6253.16C15937.6,6258.05 15933,6264.28 15916.1,6271.97C15899.3,6279.65 15890.2,6287.54 15888.5,6294.26C15886.8,6300.98 15887.7,6334.76 15872.5,6351.51C15857.4,6368.27 15852.8,6380.73 15841.9,6377.32C15816,6369.27 15830.1,6375.12 15787.3,6397.91C15744.5,6420.71 15679.5,6440.12 15656.4,6441.34C15633.4,6442.55 15587.4,6450.69 15553.1,6425.19C15518.8,6399.69 15533,6383.31 15530.3,6377.2C15527.6,6371.1 15511.3,6389.35 15494.8,6359.41ZM14800.2,6102.29C14806.4,6095.88 14813.7,6090.55 14820.5,6086.28C14824.5,6083.75 14814.3,6090.84 14800.2,6102.29ZM16075.2,6101.56C16061.1,6090.11 16050.8,6083.02 16054.9,6085.55C16061.7,6089.82 16069,6095.15 16075.2,6101.56Z" style="stroke:black;stroke-width:26.31px;stroke-linecap:butt;stroke-miterlimit:2;"/>
                </g>
                <g transform="matrix(1,0,0,1,343.97,1.92556)">
                    <path d="M15811.8,6347.98C15802.4,6350.72 15782.1,6315.06 15782,6295.75L15865.9,6207.72C15876.6,6199.57 15950,6204.78 15942,6211.31C15942,6211.31 15843.8,6317.15 15811.8,6347.98Z" style="fill:white;"/>
                </g>
                <g transform="matrix(1,0,0,1,884.116,84.8032)">
                    <path d="M15811.8,6317.01C15803.8,6323.54 15767.9,6272.68 15775.9,6266.15L15889.8,6145.55C15908.1,6127.63 15990.2,6117.02 15983.7,6132.4L15811.8,6317.01Z" style="fill:white;"/>
                </g>
            </g>
        </g>
    </g>
</svg>
